<svg width="20" height="15" viewBox="0 0 20 15" fill="none" xmlns="http://www.w3.org/2000/svg">
<path fill-rule="evenodd" clip-rule="evenodd" d="M12 0C12.5523 0 13 0.44772 13 1V3H17C18.6569 3 20 4.34315 20 6V9C20 10.6569 18.6569 12 17 12H13V14C13 14.5523 12.5523 15 12 15C11.4477 15 11 14.5523 11 14V12H3C1.34315 12 0 10.6569 0 9V6C0 4.34315 1.34315 3 3 3H11V1C11 0.44772 11.4477 0 12 0ZM11 5H3C2.44772 5 2 5.44772 2 6V9C2 9.5523 2.44772 10 3 10H11V5ZM13 10H17C17.5523 10 18 9.5523 18 9V6C18 5.44772 17.5523 5 17 5H13V10Z" fill="#9B9D8E"/>
</svg>
